<svg id="Layer_1" data-name="Layer 1" xmlns="http://www.w3.org/2000/svg" xmlns:xlink="http://www.w3.org/1999/xlink" width="48" height="48" viewBox="0 0 50 50"><defs><linearGradient id="linear-gradient" x1="26.68536" y1="-301.5569" x2="17.04923" y2="-337.42453" gradientTransform="translate(-0.18813 341.26404)" gradientUnits="userSpaceOnUse"><stop offset="0.04839" stop-color="#7866ff"/><stop offset="0.135" stop-color="#8265fa"/><stop offset="0.2807" stop-color="#9c64ee"/><stop offset="0.4665" stop-color="#c661d9"/><stop offset="0.6075" stop-color="#eb5fc7"/><stop offset="0.7292" stop-color="#fa6398"/><stop offset="0.7688" stop-color="#ff6488"/><stop offset="0.9946" stop-color="#ff7500"/></linearGradient><linearGradient id="linear-gradient-2" x1="49.55538" y1="-305.26072" x2="41.02616" y2="-308.34571" gradientTransform="translate(-0.18813 341.26404)" gradientUnits="userSpaceOnUse"><stop offset="0.2473" stop-color="#7866ff"/><stop offset="0.3461" stop-color="#8f5ffa"/><stop offset="0.5314" stop-color="#b353f1"/><stop offset="0.7045" stop-color="#cd4aeb"/><stop offset="0.859" stop-color="#dd45e7"/><stop offset="0.9793" stop-color="#e343e6"/></linearGradient><linearGradient id="linear-gradient-3" x1="40.92826" y1="-307.87304" x2="17.1557" y2="-317.85404" gradientTransform="translate(-0.18813 341.26404)" gradientUnits="userSpaceOnUse"><stop offset="0.00622" stop-color="#e343e6"/><stop offset="0.06426" stop-color="#e649ca"/><stop offset="0.1899" stop-color="#ef5982"/><stop offset="0.3724" stop-color="#fd7110"/><stop offset="0.3978" stop-color="#ff7500"/></linearGradient><clipPath id="clip-path" transform="translate(-0.18813 -0.40596)"><rect x="9.56313" y="9.78095" width="31.25" height="31.25001" fill="none"/></clipPath></defs><title>dotcover-icon</title><polygon points="30.5 0 0 3.5 0 19.167 7.667 44.667 46.167 34.833 30.5 0" fill="url(#linear-gradient)"/><polygon points="50 29.5 47.167 15.833 40.5 24.833 36 38.667 34.5 50 45.667 42.833 50 29.5" fill="url(#linear-gradient-2)"/><polygon points="47.167 15.833 37.5 11.167 26.333 12.167 15.333 19.833 13.167 33.5 22.667 46.667 34.5 50 47.167 15.833" fill="url(#linear-gradient-3)"/><rect x="8.59375" y="8.59374" width="32.8125" height="32.81252" fill="#fff" opacity="0.07"/><rect x="9.375" y="9.37499" width="31.25" height="31.25001"/><g opacity="0.1"><g clip-path="url(#clip-path)"><polygon points="30.5 0 0 3.5 0 19.167 7.667 44.667 46.167 34.833 30.5 0" fill="url(#linear-gradient)"/><polygon points="50 29.5 47.167 15.833 40.5 24.833 36 38.667 34.5 50 45.667 42.833 50 29.5" fill="url(#linear-gradient-2)"/><polygon points="47.167 15.833 37.5 11.167 26.333 12.167 15.333 19.833 13.167 33.5 22.667 46.667 34.5 50 47.167 15.833" fill="url(#linear-gradient-3)"/></g></g><rect x="12.5" y="34.375" width="10.9375" height="2.34375" fill="#fff"/><path d="M25.17136,19.22943h0a6.41316,6.41316,0,0,1,6.46733-6.61764,6.6277,6.6277,0,0,1,4.96321,1.9118l-1.80483,2.05875a4.53731,4.53731,0,0,0-3.15852-1.47055,3.72383,3.72383,0,0,0-3.60966,3.97055h0a3.81289,3.81289,0,0,0,3.60966,3.9707,4.87932,4.87932,0,0,0,3.30881-1.47056l1.80482,1.76473a6.72153,6.72153,0,0,1-5.11349,2.35291,6.29143,6.29143,0,0,1-6.46733-6.47069" transform="translate(-0.18813 -0.40596)" fill="#fff"/><path d="M12.68813,12.906h4.98636a7.70994,7.70994,0,0,1,2.74815.473,6.51422,6.51422,0,0,1,2.15511,1.31222,5.84955,5.84955,0,0,1,1.397,1.97348A6.08306,6.08306,0,0,1,24.46824,19.12v.03556a6.14378,6.14378,0,0,1-.49347,2.46472,5.81221,5.81221,0,0,1-1.397,1.98222,6.63176,6.63176,0,0,1-2.15511,1.321,7.5701,7.5701,0,0,1-2.74815.4825H12.68813Zm4.98636,10.01791a4.42406,4.42406,0,0,0,1.57031-.26819,3.37817,3.37817,0,0,0,1.2142-.76722,3.60144,3.60144,0,0,0,.78551-1.17862,3.90769,3.90769,0,0,0,.28311-1.51791v-.03639a3.9944,3.9944,0,0,0-.28311-1.51792,3.55049,3.55049,0,0,0-.78551-1.196,3.47761,3.47761,0,0,0-1.2142-.77667,4.29885,4.29885,0,0,0-1.57031-.27694H15.50091v7.53583Z" transform="translate(-0.18813 -0.40596)" fill="#fff"/></svg>