<svg xmlns="http://www.w3.org/2000/svg" xmlns:xlink="http://www.w3.org/1999/xlink" width="96" height="200" viewBox="0 0 96 200"><defs><clipPath id="b"><rect width="96" height="200"/></clipPath></defs><g id="a" clip-path="url(#b)"><g transform="translate(11 85) rotate(90)" fill="#fefffc"><path d="M 7.877317905426025 4.5 L 1.122681975364685 4.5 L 4.5 0.7474244236946106 L 7.877317905426025 4.5 Z" stroke="none"/><path d="M 4.5 1.494837760925293 L 2.245354175567627 4 L 6.754646301269531 4 L 4.5 1.494837760925293 M 4.5 0 L 9 5 L 0 5 L 4.5 0 Z" stroke="none" fill="#a4a6a3"/></g><g transform="translate(27 85) rotate(90)" fill="#cdefff"><path d="M 7.877317905426025 4.5 L 1.122681975364685 4.5 L 4.5 0.7474244236946106 L 7.877317905426025 4.5 Z" stroke="none"/><path d="M 4.5 1.494837760925293 L 2.245354175567627 4 L 6.754646301269531 4 L 4.5 1.494837760925293 M 4.5 0 L 9 5 L 0 5 L 4.5 0 Z" stroke="none" fill="#20cef6"/></g><g transform="translate(11 101) rotate(90)" fill="#fefffc"><path d="M 7.877317905426025 4.5 L 1.122681975364685 4.5 L 4.5 0.7474244236946106 L 7.877317905426025 4.5 Z" stroke="none"/><path d="M 4.5 1.494837760925293 L 2.245354175567627 4 L 6.754646301269531 4 L 4.5 1.494837760925293 M 4.5 0 L 9 5 L 0 5 L 4.5 0 Z" stroke="none" fill="#a4a6a3"/></g><g transform="translate(27 101) rotate(90)" fill="#cdefff"><path d="M 7.877317905426025 4.5 L 1.122681975364685 4.5 L 4.5 0.7474244236946106 L 7.877317905426025 4.5 Z" stroke="none"/><path d="M 4.5 1.494837760925293 L 2.245354175567627 4 L 6.754646301269531 4 L 4.5 1.494837760925293 M 4.5 0 L 9 5 L 0 5 L 4.5 0 Z" stroke="none" fill="#20cef6"/></g><g transform="translate(75 85) rotate(90)" fill="#fefffc"><path d="M 7.877317905426025 4.5 L 1.122681975364685 4.5 L 4.5 0.7474244236946106 L 7.877317905426025 4.5 Z" stroke="none"/><path d="M 4.5 1.494837760925293 L 2.245354175567627 4 L 6.754646301269531 4 L 4.5 1.494837760925293 M 4.5 0 L 9 5 L 0 5 L 4.5 0 Z" stroke="none" fill="#a4a6a3"/></g><g transform="translate(91 85) rotate(90)" fill="#cdefff"><path d="M 7.877317905426025 4.5 L 1.122681975364685 4.5 L 4.5 0.7474244236946106 L 7.877317905426025 4.5 Z" stroke="none"/><path d="M 4.5 1.494837760925293 L 2.245354175567627 4 L 6.754646301269531 4 L 4.5 1.494837760925293 M 4.5 0 L 9 5 L 0 5 L 4.5 0 Z" stroke="none" fill="#20cef6"/></g><g transform="translate(75 101) rotate(90)" fill="#fefffc"><path d="M 7.877317905426025 4.5 L 1.122681975364685 4.5 L 4.5 0.7474244236946106 L 7.877317905426025 4.5 Z" stroke="none"/><path d="M 4.5 1.494837760925293 L 2.245354175567627 4 L 6.754646301269531 4 L 4.5 1.494837760925293 M 4.5 0 L 9 5 L 0 5 L 4.5 0 Z" stroke="none" fill="#a4a6a3"/></g><g transform="translate(91 101) rotate(90)" fill="#cdefff"><path d="M 7.877317905426025 4.5 L 1.122681975364685 4.5 L 4.5 0.7474244236946106 L 7.877317905426025 4.5 Z" stroke="none"/><path d="M 4.5 1.494837760925293 L 2.245354175567627 4 L 6.754646301269531 4 L 4.5 1.494837760925293 M 4.5 0 L 9 5 L 0 5 L 4.5 0 Z" stroke="none" fill="#20cef6"/></g><g transform="translate(-874 -409)" fill="#595b58"><path d="M 916.5 500.5 L 911.5 500.5 L 911.5 500.2070922851563 L 916.2070922851563 495.5 L 916.5 495.5 L 916.5 500.5 Z" stroke="none"/><path d="M 916 500 L 916 496.4142150878906 L 912.4142456054688 500 L 916 500 M 917 501 L 911 501 L 911 500 L 916 495 L 917 495 L 917 501 Z" stroke="none"/></g><g transform="translate(-874 -393)" fill="#595b58"><path d="M 916.5 500.5 L 911.5 500.5 L 911.5 500.2070922851563 L 916.2070922851563 495.5 L 916.5 495.5 L 916.5 500.5 Z" stroke="none"/><path d="M 916 500 L 916 496.4142150878906 L 912.4142456054688 500 L 916 500 M 917 501 L 911 501 L 911 500 L 916 495 L 917 495 L 917 501 Z" stroke="none"/></g><g transform="translate(-858 -409)" fill="#cdefff"><path d="M 916.5 500.5 L 911.5 500.5 L 911.5 500.2070922851563 L 916.2070922851563 495.5 L 916.5 495.5 L 916.5 500.5 Z" stroke="none"/><path d="M 916 500 L 916 496.4142150878906 L 912.4142456054688 500 L 916 500 M 917 501 L 911 501 L 911 500 L 916 495 L 917 495 L 917 501 Z" stroke="none" fill="#20cef6"/></g><g transform="translate(-858 -393)" fill="#cdefff"><path d="M 916.5 500.5 L 911.5 500.5 L 911.5 500.2070922851563 L 916.2070922851563 495.5 L 916.5 495.5 L 916.5 500.5 Z" stroke="none"/><path d="M 916 500 L 916 496.4142150878906 L 912.4142456054688 500 L 916 500 M 917 501 L 911 501 L 911 500 L 916 495 L 917 495 L 917 501 Z" stroke="none" fill="#20cef6"/></g></g></svg>